<svg xmlns="http://www.w3.org/2000/svg" width="18" height="18" viewBox="0 0 18 18">
    <defs>
        <clipPath id="clip-path">
            <path class="cls-1" d="M0 0h18v18H0z"/>
        </clipPath>
        <style>
            .cls-1{fill:none}
        </style>
    </defs>
    <g id="구성_요소_1" data-name="구성 요소 1" style="clip-path:url(#clip-path)">
        <path id="사각형_176" data-name="사각형 176" class="cls-1" d="M0 0h18v18H0z"/>
        <path id="패스_99" data-name="패스 99" d="m17.9 16.324-3.715-3.715a7.708 7.708 0 0 0 1.576-4.728A7.832 7.832 0 0 0 7.881 0 7.832 7.832 0 0 0 0 7.881a7.832 7.832 0 0 0 7.881 7.881 7.708 7.708 0 0 0 4.728-1.576l3.715 3.714zM2.252 7.881a5.574 5.574 0 0 1 5.629-5.629 5.574 5.574 0 0 1 5.629 5.629 5.574 5.574 0 0 1-5.629 5.629 5.574 5.574 0 0 1-5.629-5.629z" style="fill:#333"/>
    </g>
</svg>
